<?xml version="1.0" encoding="UTF-8" standalone="no"?>

<svg width="1280"
     height="1280"
     viewBox="0 -512 1280 1280"
     version="1.1"
     xmlns="http://www.w3.org/2000/svg">

  <defs>
    <pattern id="blocks" x="0" y="0" width="2" height="2" patternUnits="userSpaceOnUse">
      <rect x="0" y="0" width="1" height="1" fill="#000" fill-opacity="0.2"/>
      <rect x="1" y="1" width="1" height="1" fill="#000" fill-opacity="0.2"/>
    </pattern>
    <pattern id="chunks" x="0" y="0" width="32" height="32" patternUnits="userSpaceOnUse">
      <rect x="0" y="0" width="16" height="16" fill="#f00" fill-opacity="0.2"/>
      <rect x="16" y="16" width="16" height="16" fill="#f00" fill-opacity="0.2"/>
    </pattern>
    <marker id="arrow" markerWidth="10" markerHeight="10" refX="0" refY="3" orient="auto" markerUnits="strokeWidth">
      <path d="M0,0 L0,6 L9,3 z" fill="#000" />
    </marker>
  </defs>

  <g id="regions" transform="translate(128,128)">
    <g id="region-1">
      <rect width="512"
            height="512"
            fill="url(#blocks)"/>
      <rect width="512"
            height="512"
            fill="url(#chunks)"/>
    </g>
    <g id="region-2" transform="translate(512, 0)">
      <rect width="512"
            height="512"
            fill="url(#blocks)"/>
      <rect width="512"
            height="512"
            fill="url(#chunks)"/>
      <rect width="512"
            height="512"
            fill="red"
            fill-opacity="0.075"/>
    </g>
    <g id="region-3" transform="translate(0, -512)">
      <rect width="512"
            height="512"
            fill="url(#blocks)"/>
      <rect width="512"
            height="512"
            fill="url(#chunks)"/>
      <rect width="512"
            height="512"
            fill="red"
            fill-opacity="0.075"/>
    </g>
    <g id="region-4" transform="translate(512, -512)">
      <rect width="512"
            height="512"
            fill="url(#blocks)"/>
      <rect width="512"
            height="512"
            fill="url(#chunks)"/>
    </g>
  </g>

  <text transform="translate(90, 150)" font-size="20">X</text>
  <text transform="translate(618, 664) rotate(90)" font-size="20">Z</text>

  <line x1="1216" x2="64" y1="128" y2="128" stroke="black" stroke-width="1" marker-end="url(#arrow)"/>
  <line x1="640" x2="640" y1="-448" y2="700" stroke="black" stroke-width="1" marker-end="url(#arrow)"/>

  <text transform="translate(646, 120)" font-size="15">(0, 0)</text>
  <text transform="translate(64, 120)" font-size="15">(512, 0)</text>
  <text transform="translate(648, 642) rotate(90)" font-size="15">(0, 512)</text>
</svg>
